<svg width="24" height="24" viewBox="0 0 24 24" fill="none" xmlns="http://www.w3.org/2000/svg">
<path d="M19 12.4308C19.0011 12.2706 18.9688 12.112 18.9053 11.965C18.8417 11.818 18.7482 11.6858 18.6308 11.5769L11.5 5L4.36926 11.5769C4.25182 11.6858 4.15835 11.818 4.09478 11.965C4.03121 12.112 3.99894 12.2706 4.00003 12.4308V18.8462C4.00003 19.1522 4.12159 19.4457 4.33798 19.662C4.55437 19.8784 4.84785 20 5.15387 20H17.8462C18.1522 20 18.4457 19.8784 18.6621 19.662C18.8785 19.4457 19 19.1522 19 18.8462V12.4308Z" stroke="#30333E" stroke-width="1.5" stroke-linecap="round" stroke-linejoin="round"/>
<path d="M11.5 20V15.3846" stroke="#30333E" stroke-width="1.5" stroke-linecap="round" stroke-linejoin="round"/>
</svg>
