<svg width="14" height="14" viewBox="0 0 14 14" fill="none" xmlns="http://www.w3.org/2000/svg">
<g clip-path="url(#clip0_7352_13201)">
<path d="M6.99814 12.092C9.81032 12.092 12.09 9.81227 12.09 7.0001C12.09 4.18792 9.81032 1.9082 6.99814 1.9082C4.18597 1.9082 1.90625 4.18792 1.90625 7.0001C1.90625 9.81227 4.18597 12.092 6.99814 12.092Z" fill="white"/>
<path d="M8.60997 9.01663C8.50726 9.01663 8.40186 8.97609 8.32348 8.89771L6.71267 7.2869C6.63699 7.21122 6.59375 7.10852 6.59375 7.00041V3.84095C6.59375 3.61663 6.77483 3.43555 6.99916 3.43555C7.22348 3.43555 7.40456 3.61663 7.40456 3.84095V6.83284L8.89645 8.32474C9.05591 8.4842 9.05591 8.74095 8.89645 8.89771C8.81807 8.97609 8.71267 9.01663 8.60997 9.01663Z" fill="#714CDC"/>
</g>
<defs>
<clipPath id="clip0_7352_13201">
<rect width="14" height="14" fill="white"/>
</clipPath>
</defs>
</svg>
