<svg width="24" height="24" viewBox="0 0 24 24" fill="none" xmlns="http://www.w3.org/2000/svg">
<path d="M7.44444 15.8472H17.5556V10.6111C17.5556 9.65818 17.3244 8.77045 16.8622 7.94792C16.4193 7.14545 15.8174 6.50849 15.0567 6.03704C14.267 5.56559 13.4148 5.32986 12.5 5.32986C11.5852 5.32986 10.733 5.56559 9.94333 6.03704C9.18259 6.50849 8.58074 7.14545 8.13778 7.94792C7.67556 8.77045 7.44444 9.65818 7.44444 10.6111V15.8472ZM12.5 3.81018C13.6748 3.81018 14.7678 4.12114 15.7789 4.74306C16.7611 5.34491 17.5411 6.15741 18.1189 7.18056C18.7063 8.2338 19 9.37731 19 10.6111V17.3519H6V10.6111C6 9.37731 6.2937 8.2338 6.88111 7.18056C7.45889 6.15741 8.23889 5.34491 9.22111 4.74306C10.2322 4.13117 11.3252 3.82523 12.5 3.82523V3.81018ZM10.6944 18.1042H14.3056C14.3056 18.4452 14.2237 18.7612 14.06 19.0521C13.8963 19.343 13.6772 19.5737 13.4028 19.7442C13.1283 19.9147 12.8274 20 12.5 20C12.1726 20 11.8717 19.9147 11.5972 19.7442C11.3228 19.5737 11.1037 19.343 10.94 19.0521C10.7763 18.7612 10.6944 18.4502 10.6944 18.1192V18.1042Z" fill="#30333E"/>
</svg>
