<svg width="17" height="17" viewBox="0 0 17 17" fill="none" xmlns="http://www.w3.org/2000/svg">
<path d="M2.14286 2.71289C1.83975 2.71289 1.54906 2.8333 1.33474 3.04763C1.12041 3.26195 1 3.55264 1 3.85575V14.7129C1 15.016 1.12041 15.3067 1.33474 15.521C1.54906 15.7353 1.83975 15.8557 2.14286 15.8557H14.7143C15.0174 15.8557 15.3081 15.7353 15.5224 15.521C15.7367 15.3067 15.8571 15.016 15.8571 14.7129V3.85575C15.8571 3.55264 15.7367 3.26195 15.5224 3.04763C15.3081 2.8333 15.0174 2.71289 14.7143 2.71289H12.4286" stroke="#714CDC" stroke-linecap="round" stroke-linejoin="round"/>
<path d="M1 6.71289H15.8571" stroke="#714CDC" stroke-linecap="round" stroke-linejoin="round"/>
<path d="M4.42859 1V4.42857" stroke="#714CDC" stroke-linecap="round" stroke-linejoin="round"/>
<path d="M12.4286 1V4.42857" stroke="#714CDC" stroke-linecap="round" stroke-linejoin="round"/>
<path d="M4.42859 2.71289H10.1429" stroke="#714CDC" stroke-linecap="round" stroke-linejoin="round"/>
</svg>
