<svg width="14" height="18" viewBox="0 0 14 18" fill="none" xmlns="http://www.w3.org/2000/svg">
<path d="M7.74062 16.9198C9.34375 14.8724 13 9.91022 13 7.12299C13 3.74259 10.3125 1 7 1C3.6875 1 1 3.74259 1 7.12299C1 9.91022 4.65625 14.8724 6.25938 16.9198C6.64375 17.4077 7.35625 17.4077 7.74062 16.9198ZM7 5.08199C7.53043 5.08199 8.03914 5.29702 8.41421 5.67979C8.78929 6.06255 9 6.58168 9 7.12299C9 7.66429 8.78929 8.18343 8.41421 8.56619C8.03914 8.94895 7.53043 9.16398 7 9.16398C6.46957 9.16398 5.96086 8.94895 5.58579 8.56619C5.21071 8.18343 5 7.66429 5 7.12299C5 6.58168 5.21071 6.06255 5.58579 5.67979C5.96086 5.29702 6.46957 5.08199 7 5.08199Z" stroke="#696D70" stroke-width="1.3"/>
</svg>
