<svg width="16" height="15" viewBox="0 0 16 15" fill="none" xmlns="http://www.w3.org/2000/svg">
<path d="M9.98744 6.25122C9.73086 6.00233 9.57925 5.699 9.5326 5.34122L9.29935 3.54456L7.70158 4.40789C7.39058 4.579 7.05626 4.63345 6.69861 4.57122L4.91425 4.23289L5.25246 6.01789C5.31466 6.37567 5.26023 6.71011 5.08918 7.02122L4.22616 8.61956L6.02219 8.85289C6.37984 8.89956 6.68306 9.05122 6.93186 9.30789L8.17975 10.6262L8.94947 8.99289C9.10497 8.66622 9.346 8.42511 9.67255 8.26956L11.3053 7.49956L9.98744 6.25122ZM10.0108 9.49456L8.71622 12.2012C8.67735 12.2946 8.61126 12.3568 8.51796 12.3879C8.42466 12.419 8.33525 12.4151 8.24972 12.3762C8.21085 12.3529 8.17586 12.3257 8.14476 12.2946L6.0805 10.1129C6.02607 10.0507 5.9561 10.0157 5.87057 10.0079L2.89664 9.62289C2.80334 9.60733 2.72559 9.56067 2.66339 9.48289C2.60119 9.40511 2.57786 9.31956 2.59341 9.22622C2.60119 9.17956 2.61285 9.14067 2.6284 9.10956L4.06289 6.46122C4.10954 6.39122 4.12509 6.31733 4.10954 6.23956L3.54974 3.27622C3.53419 3.18289 3.55362 3.09733 3.60805 3.01956C3.66247 2.94178 3.73634 2.89122 3.82964 2.86789C3.87629 2.86011 3.91905 2.86011 3.95792 2.86789L6.9202 3.42789C6.99795 3.44345 7.07181 3.42789 7.14179 3.38122L9.78917 1.94622C9.86692 1.89956 9.95245 1.88983 10.0457 1.91706C10.139 1.94428 10.209 2.00067 10.2557 2.08622C10.279 2.12511 10.2945 2.16789 10.3023 2.21456L10.6872 5.18956C10.695 5.27511 10.7299 5.34511 10.7921 5.39956L12.973 7.46456C13.043 7.53456 13.0799 7.61622 13.0838 7.70956C13.0877 7.80289 13.0547 7.88845 12.9847 7.96622C12.9536 7.99733 12.9186 8.02067 12.8797 8.03622L10.174 9.33122C10.0963 9.36233 10.0419 9.41678 10.0108 9.49456ZM10.4656 10.6146L11.2936 9.78622L13.7661 12.2712L12.9497 13.0879L10.4656 10.6146Z" fill="white"/>
</svg>
