<svg width="49" height="48" viewBox="0 0 49 48" fill="none" xmlns="http://www.w3.org/2000/svg">
<rect x="0.5" width="48" height="48" rx="24" fill="#714CDC"/>
<g clip-path="url(#clip0_7352_10802)">
<path d="M23.0861 36.2148C22.7261 35.8548 22.4961 35.3548 22.4961 34.8048V13.1948C22.4961 12.0948 23.3861 11.1948 24.4961 11.1948C25.6061 11.1948 26.4961 12.0848 26.4961 13.1948V34.8048C26.4961 35.9048 25.6061 36.8048 24.4961 36.8048C23.9461 36.8048 23.4461 36.5848 23.0861 36.2148Z" fill="white"/>
<path d="M12.2853 25.4149C11.9253 25.0549 11.6953 24.5549 11.6953 24.0049C11.6953 22.9049 12.5853 22.0049 13.6953 22.0049H35.3053C36.4053 22.0049 37.3053 22.9049 37.3053 24.0049C37.3053 25.1049 36.4153 26.0049 35.3053 26.0049H13.6953C13.1453 26.0049 12.6453 25.7849 12.2853 25.4149Z" fill="white"/>
</g>
<defs>
<clipPath id="clip0_7352_10802">
<rect width="25.61" height="25.61" fill="white" transform="translate(11.6953 11.1948)"/>
</clipPath>
</defs>
</svg>
