<svg width="24" height="24" viewBox="0 0 24 24" fill="none" xmlns="http://www.w3.org/2000/svg">
<path d="M6 20C6 18.8927 6.26819 17.8667 6.80457 16.9219C7.32145 16.0076 8.01874 15.2813 8.89646 14.7429C9.80343 14.1841 10.7884 13.9048 11.8514 13.9048C12.9144 13.9048 13.8994 14.1841 14.8064 14.7429C15.6841 15.2813 16.3814 16.0076 16.8983 16.9219C17.4347 17.8667 17.7029 18.8927 17.7029 20H16.24C16.24 19.1771 16.0401 18.4102 15.6402 17.699C15.2501 17.0083 14.7235 16.4597 14.0603 16.0533C13.3777 15.6368 12.6414 15.4286 11.8514 15.4286C11.0615 15.4286 10.3252 15.6368 9.64251 16.0533C8.97935 16.4597 8.45272 17.0083 8.06263 17.699C7.66278 18.4102 7.46286 19.1771 7.46286 20H6ZM11.8514 13.1429C11.0517 13.1429 10.3154 12.9346 9.64251 12.5181C8.97935 12.1117 8.45272 11.5632 8.06263 10.8724C7.66278 10.1714 7.46286 9.40444 7.46286 8.57143C7.46286 7.73841 7.66278 6.97143 8.06263 6.27048C8.45272 5.57968 8.97935 5.03111 9.64251 4.62476C10.3154 4.20825 11.0517 4 11.8514 4C12.6511 4 13.3874 4.20825 14.0603 4.62476C14.7235 5.03111 15.2501 5.57968 15.6402 6.27048C16.0401 6.97143 16.24 7.73841 16.24 8.57143C16.24 9.40444 16.0401 10.1714 15.6402 10.8724C15.2501 11.5632 14.7235 12.1117 14.0603 12.5181C13.3874 12.9346 12.6511 13.1429 11.8514 13.1429ZM11.8514 11.619C12.3781 11.619 12.8657 11.4819 13.3143 11.2076C13.7629 10.9333 14.1189 10.5625 14.3822 10.0952C14.6455 9.62794 14.7771 9.12 14.7771 8.57143C14.7771 8.02286 14.6455 7.51492 14.3822 7.04762C14.1189 6.58032 13.7629 6.20952 13.3143 5.93524C12.8657 5.66095 12.3781 5.52381 11.8514 5.52381C11.3248 5.52381 10.8372 5.66095 10.3886 5.93524C9.93996 6.20952 9.584 6.58032 9.32069 7.04762C9.05737 7.51492 8.92571 8.02286 8.92571 8.57143C8.92571 9.12 9.05737 9.62794 9.32069 10.0952C9.584 10.5625 9.93996 10.9333 10.3886 11.2076C10.8372 11.4819 11.3248 11.619 11.8514 11.619Z" fill="#30333E"/>
</svg>
