<svg width="14" height="14" viewBox="0 0 14 14" fill="none" xmlns="http://www.w3.org/2000/svg">
<g clip-path="url(#clip0_7352_13205)">
<path d="M6.99992 1.35938C3.8837 1.35938 1.35938 3.8837 1.35938 6.99992C1.35938 10.1161 3.8837 12.6405 6.99992 12.6405C10.1161 12.6405 12.6405 10.1161 12.6405 6.99992C12.6405 3.8837 10.1134 1.35938 6.99992 1.35938ZM9.03775 9.00262C9.03775 9.23235 8.99181 9.38911 8.90262 9.47559C8.81343 9.56208 8.65127 9.60802 8.41883 9.60802C8.33235 9.60802 8.25397 9.59992 8.1864 9.5864C8.11883 9.57289 8.05127 9.53775 7.9891 9.48911C7.92694 9.43775 7.85938 9.36478 7.79181 9.26748C7.72424 9.17019 7.64316 9.03775 7.55127 8.87289L6.17289 6.40802C6.09992 6.27559 6.03505 6.14586 5.97559 6.01343C5.91613 5.881 5.86478 5.73235 5.82154 5.56748V9.25938C5.82154 9.39181 5.77829 9.4864 5.6891 9.54856C5.59992 9.61073 5.50262 9.64046 5.3891 9.64046C5.27559 9.64046 5.17829 9.61073 5.0891 9.54856C5.00262 9.48911 4.95667 9.39181 4.95667 9.25938V4.99992C4.95667 4.77019 5.00262 4.61343 5.09181 4.52694C5.181 4.44046 5.34316 4.39451 5.57559 4.39451C5.66208 4.39451 5.74046 4.40262 5.80802 4.41613C5.87559 4.42965 5.94046 4.46208 6.00532 4.51343C6.06748 4.56478 6.13505 4.63775 6.20262 4.73505C6.27019 4.83235 6.35127 4.96478 6.44316 5.12965L7.82154 7.59451C7.89451 7.72694 7.95938 7.85667 8.01883 7.9891C8.07829 8.12154 8.12965 8.26748 8.17289 8.43505V4.74316C8.17289 4.61073 8.21613 4.51613 8.30532 4.45397C8.39181 4.39181 8.49181 4.36208 8.60532 4.36208C8.71883 4.36208 8.81613 4.39181 8.90532 4.45397C8.99181 4.51343 9.03775 4.61073 9.03775 4.74316V9.00262Z" fill="white"/>
</g>
<defs>
<clipPath id="clip0_7352_13205">
<rect width="14" height="14" fill="white"/>
</clipPath>
</defs>
</svg>
