<svg width="14" height="14" viewBox="0 0 14 14" fill="none" xmlns="http://www.w3.org/2000/svg">
<path d="M7 6C8.38071 6 9.5 4.88071 9.5 3.5C9.5 2.11929 8.38071 1 7 1C5.61929 1 4.5 2.11929 4.5 3.5C4.5 4.88071 5.61929 6 7 6Z" stroke="#00C7BE" stroke-linecap="round" stroke-linejoin="round"/>
<path d="M1 13.0001H7H13V12.4044C12.9894 11.5668 12.7214 10.745 12.221 10.016C11.7206 9.28686 11.0041 8.6742 10.1386 8.23519C9.273 7.79618 8.28655 7.54514 7.27136 7.50553C7.18085 7.502 7.09037 7.50016 7 7.5C6.90963 7.50016 6.81915 7.502 6.72864 7.50553C5.71345 7.54514 4.727 7.79618 3.86143 8.23519C2.99587 8.6742 2.27943 9.28686 1.77903 10.016C1.27864 10.745 1.01061 11.5668 1 12.4044V13.0001Z" stroke="#00C7BE" stroke-linecap="round" stroke-linejoin="round"/>
</svg>
