<svg width="24" height="24" viewBox="0 0 24 24" fill="none" xmlns="http://www.w3.org/2000/svg">
<path fill-rule="evenodd" clip-rule="evenodd" d="M7.05136 3.92616C7.26861 2.93369 8.68175 2.92751 8.90768 3.91804L8.92076 3.97569L8.9208 3.97586C8.93002 4.01657 8.93877 4.05516 8.94808 4.09482C9.29897 5.58932 10.5084 6.73126 12.0224 6.99465C13.0535 7.17403 13.0535 8.65421 12.0224 8.83359C10.5004 9.09839 9.28608 10.2511 8.94253 11.7574L8.90768 11.9102C8.68175 12.9007 7.26861 12.8946 7.05136 11.9021L7.02265 11.771C6.69158 10.2586 5.47843 9.09679 3.95314 8.83143C2.92448 8.65247 2.92447 7.17578 3.95314 6.99682C5.47312 6.73238 6.68314 5.57775 7.01916 4.07308C7.02647 4.04032 7.03344 4.00834 7.04071 3.97494L7.04078 3.97463L7.04081 3.97449L7.05136 3.92616ZM17.5031 8.07252C17.7311 7.97656 17.976 7.92714 18.2234 7.92714C18.4708 7.92714 18.7157 7.97656 18.9437 8.07252C19.1712 8.16823 19.3773 8.3083 19.55 8.48455L19.5513 8.4859L21.271 10.2191C21.4443 10.3915 21.582 10.5963 21.676 10.822C21.7703 11.0483 21.8188 11.291 21.8188 11.5362C21.8188 11.7813 21.7703 12.0241 21.676 12.2504C21.5819 12.4761 21.4442 12.681 21.2708 12.8534L21.2695 12.8548L12.8578 21.3207C12.7744 21.4046 12.664 21.4562 12.5462 21.4665L8.47481 21.8193C8.32771 21.8321 8.1825 21.7791 8.07809 21.6747C7.97368 21.5703 7.92076 21.4251 7.93351 21.278L8.28637 17.2066C8.29658 17.0888 8.34821 16.9784 8.43209 16.8951L16.8983 8.48311C17.0707 8.30754 17.2763 8.16797 17.5031 8.07252Z" fill="#714CDC"/>
</svg>
