<svg width="20" height="20" viewBox="0 0 20 20" fill="none" xmlns="http://www.w3.org/2000/svg">
<g clip-path="url(#clip0_7399_18537)">
<path d="M5.92738 9.06543H2.73047V16.8492H5.92738V9.06543Z" fill="#714CDC"/>
<path d="M5.92841 17.4284H2.73149C2.41103 17.4284 2.15234 17.1697 2.15234 16.8493V9.06548C2.15234 8.74502 2.41103 8.48633 2.73149 8.48633H5.92841C6.24887 8.48633 6.50756 8.74502 6.50756 9.06548V16.8493C6.50756 17.1697 6.24887 17.4284 5.92841 17.4284ZM3.31064 16.2701H5.34926V9.64463H3.31064V16.2701Z" fill="#714CDC"/>
<path d="M5.92578 9.09675L8.61304 7.3593L11.2617 2.88439C11.3428 2.71065 11.5165 2.60254 11.7096 2.60254C12.335 2.60254 12.8717 3.04269 12.9953 3.65659L13.2269 4.80331C13.3505 5.41721 13.3273 6.05428 13.1536 6.65273L12.8717 7.62957H15.9258C16.7559 7.62957 17.3852 8.3786 17.2462 9.19713L15.9142 15.7415C15.8061 16.3863 15.2462 16.8574 14.5937 16.8574H5.92578V9.10447V9.09675Z" fill="#714CDC"/>
<path d="M14.5948 17.4288H5.92681C5.60634 17.4288 5.34766 17.1701 5.34766 16.8496V9.09675C5.34766 8.89984 5.44804 8.71837 5.61407 8.61026L8.18935 6.94617L10.7569 2.6064C10.9384 2.25119 11.3129 2.01953 11.7145 2.01953C12.6102 2.01953 13.3901 2.6566 13.5677 3.53691L13.7994 4.68362C13.9423 5.38633 13.9114 6.11992 13.7145 6.81104L13.645 7.04656H15.9307C16.4982 7.04656 17.0311 7.29366 17.3978 7.7261C17.7646 8.15853 17.9191 8.72996 17.8226 9.28594L16.4867 15.8496C16.3322 16.757 15.5368 17.4288 14.5986 17.4288H14.5948ZM6.50596 16.2705H14.5986C14.9693 16.2705 15.2859 16.0041 15.3477 15.6373L16.6836 9.07359C16.7183 8.86895 16.6565 8.64501 16.5098 8.47127C16.3631 8.29752 16.1546 8.201 15.9268 8.201H12.8728C12.6913 8.201 12.5175 8.11606 12.4094 7.96934C12.3013 7.82262 12.2666 7.63729 12.3168 7.45969L12.5986 6.48285C12.7453 5.9732 12.7685 5.4288 12.6643 4.90756L12.4326 3.76084C12.367 3.43652 12.089 3.19714 11.7608 3.17397L9.116 7.64501C9.06966 7.72223 9.00789 7.78787 8.93067 7.83806L6.50596 9.40177V16.2589V16.2705Z" fill="#714CDC"/>
<path d="M5.92681 15.9306C5.60634 15.9306 5.34766 15.6719 5.34766 15.3514V10.834C5.34766 10.5136 5.60634 10.2549 5.92681 10.2549C6.24727 10.2549 6.50596 10.5136 6.50596 10.834V15.3514C6.50596 15.6719 6.24727 15.9306 5.92681 15.9306Z" fill="white"/>
</g>
<defs>
<clipPath id="clip0_7399_18537">
<rect width="20" height="20" fill="white"/>
</clipPath>
</defs>
</svg>
